<svg width="14" height="14" viewBox="0 0 14 14" fill="none" xmlns="http://www.w3.org/2000/svg">
<path d="M6.99998 0.333374C7.88403 0.333374 8.73188 0.684563 9.357 1.30968C9.98212 1.93481 10.3333 2.78265 10.3333 3.66671C10.3333 4.55076 9.98212 5.39861 9.357 6.02373C8.73188 6.64885 7.88403 7.00004 6.99998 7.00004C6.11592 7.00004 5.26808 6.64885 4.64296 6.02373C4.01784 5.39861 3.66665 4.55076 3.66665 3.66671C3.66665 2.78265 4.01784 1.93481 4.64296 1.30968C5.26808 0.684563 6.11592 0.333374 6.99998 0.333374ZM6.99998 8.66671C10.6833 8.66671 13.6666 10.1584 13.6666 12V13.6667H0.333313V12C0.333313 10.1584 3.31665 8.66671 6.99998 8.66671Z" fill="#DBE3E1"/>
</svg>
