<svg width="12" height="12" viewBox="0 0 12 12" fill="none" xmlns="http://www.w3.org/2000/svg">
<path fill-rule="evenodd" clip-rule="evenodd" d="M0.792787 0.79357C0.980314 0.606099 1.23462 0.500783 1.49979 0.500783C1.76495 0.500783 2.01926 0.606099 2.20679 0.79357L5.99979 4.58657L9.79279 0.79357C9.88503 0.698059 9.99538 0.621877 10.1174 0.569468C10.2394 0.517059 10.3706 0.489473 10.5034 0.488319C10.6362 0.487165 10.7678 0.512467 10.8907 0.562748C11.0136 0.613028 11.1253 0.687282 11.2192 0.781174C11.3131 0.875067 11.3873 0.986719 11.4376 1.10962C11.4879 1.23251 11.5132 1.36419 11.512 1.49697C11.5109 1.62975 11.4833 1.76097 11.4309 1.88297C11.3785 2.00498 11.3023 2.11532 11.2068 2.20757L7.41379 6.00057L11.2068 9.79357C11.3889 9.98217 11.4897 10.2348 11.4875 10.497C11.4852 10.7592 11.38 11.01 11.1946 11.1954C11.0092 11.3808 10.7584 11.486 10.4962 11.4882C10.234 11.4905 9.98139 11.3897 9.79279 11.2076L5.99979 7.41457L2.20679 11.2076C2.01818 11.3897 1.76558 11.4905 1.50339 11.4882C1.24119 11.486 0.990376 11.3808 0.804968 11.1954C0.61956 11.01 0.514391 10.7592 0.512112 10.497C0.509834 10.2348 0.610629 9.98217 0.792787 9.79357L4.58579 6.00057L0.792787 2.20757C0.605316 2.02004 0.5 1.76573 0.5 1.50057C0.5 1.23541 0.605316 0.981097 0.792787 0.79357Z" fill="white"/>
</svg>
