<svg width="62" height="36" viewBox="0 0 62 36" fill="none" xmlns="http://www.w3.org/2000/svg">
<rect width="62" height="36" rx="18" fill="#3888E7"/>
<mask id="mask0_176_75" style="mask-type:alpha" maskUnits="userSpaceOnUse" x="17" y="4" width="26" height="26">
<rect x="17" y="4" width="26" height="26" fill="#D9D9D9"/>
</mask>
<g mask="url(#mask0_176_75)">
<path d="M24.5833 22.4167H26.75V14.8333H24.5833V22.4167ZM28.9167 22.4167H31.0833V11.5833H28.9167V22.4167ZM33.25 22.4167H35.4167V18.0833H33.25V22.4167ZM22.4167 26.75C21.8208 26.75 21.3108 26.5378 20.8865 26.1135C20.4622 25.6892 20.25 25.1792 20.25 24.5833V9.41667C20.25 8.82083 20.4622 8.31076 20.8865 7.88646C21.3108 7.46215 21.8208 7.25 22.4167 7.25H37.5833C38.1792 7.25 38.6892 7.46215 39.1135 7.88646C39.5378 8.31076 39.75 8.82083 39.75 9.41667V24.5833C39.75 25.1792 39.5378 25.6892 39.1135 26.1135C38.6892 26.5378 38.1792 26.75 37.5833 26.75H22.4167ZM22.4167 24.5833H37.5833V9.41667H22.4167V24.5833Z" fill="white"/>
</g>
</svg>
