<svg width="26" height="26" viewBox="0 0 26 26" fill="none" xmlns="http://www.w3.org/2000/svg">
<mask id="mask0_176_85" style="mask-type:alpha" maskUnits="userSpaceOnUse" x="0" y="0" width="26" height="26">
<rect width="26" height="26" fill="#D9D9D9"/>
</mask>
<g mask="url(#mask0_176_85)">
<path d="M2.16699 22.75V3.25H13.0003V7.58333H23.8337V22.75H2.16699ZM4.33366 20.5833H6.50033V18.4167H4.33366V20.5833ZM4.33366 16.25H6.50033V14.0833H4.33366V16.25ZM4.33366 11.9167H6.50033V9.75H4.33366V11.9167ZM4.33366 7.58333H6.50033V5.41667H4.33366V7.58333ZM8.66699 20.5833H10.8337V18.4167H8.66699V20.5833ZM8.66699 16.25H10.8337V14.0833H8.66699V16.25ZM8.66699 11.9167H10.8337V9.75H8.66699V11.9167ZM8.66699 7.58333H10.8337V5.41667H8.66699V7.58333ZM13.0003 20.5833H21.667V9.75H13.0003V11.9167H15.167V14.0833H13.0003V16.25H15.167V18.4167H13.0003V20.5833ZM17.3337 14.0833V11.9167H19.5003V14.0833H17.3337ZM17.3337 18.4167V16.25H19.5003V18.4167H17.3337Z" fill="#808080"/>
</g>
</svg>
