<svg width="1220" height="209" viewBox="0 0 1220 209" fill="none" xmlns="http://www.w3.org/2000/svg">
<g clip-path="url(#clip0_16711_13275)">
<path d="M219.06 3.65039H0V47.4604H219.06V3.65039Z" fill="#111111"/>
<path d="M138.739 14.5996H83.9688V204.45H138.739V14.5996Z" fill="#111111"/>
<path d="M292.082 14.5996H237.312V204.45H292.082V14.5996Z" fill="#111111"/>
<mask id="mask0_16711_13275" style="mask-type:luminance" maskUnits="userSpaceOnUse" x="-631" y="-768" width="2481" height="1750">
<path d="M1849.71 -768H-630.289V982H1849.71V-768Z" fill="white"/>
</mask>
<g mask="url(#mask0_16711_13275)">
<path d="M438.113 73.0009C438.113 36.3109 408.853 4.70083 372.403 3.72083V3.63086H237.312V47.4409H363.312C376.413 47.4409 387.043 59.8909 387.043 73.0009C387.043 87.6009 376.413 98.5609 363.312 98.5609H237.312V135.071H372.403V135.001C408.853 134.001 438.113 109.721 438.113 73.0009Z" fill="#111111"/>
</g>
<path d="M346.843 131.441H281.133L376.053 204.461H452.723L346.843 131.441Z" fill="#111111"/>
<mask id="mask1_16711_13275" style="mask-type:luminance" maskUnits="userSpaceOnUse" x="-631" y="-768" width="2481" height="1750">
<path d="M1849.71 -768H-630.289V982H1849.71V-768Z" fill="white"/>
</mask>
<g mask="url(#mask1_16711_13275)">
<path d="M569.828 162.47C533.618 162.47 504.268 135.47 504.268 102.23C504.268 68.9897 533.618 41.9998 569.828 41.9998C606.038 41.9998 635.388 68.9997 635.388 102.24C635.388 135.48 606.038 162.48 569.828 162.48M569.828 0.00976562C498.638 0.00976562 454.828 46.5998 454.828 104.01C454.828 161.42 498.648 208.07 569.828 208.07C641.008 208.07 684.828 161.48 684.828 104.01C684.828 46.5398 641.008 0.00976562 569.828 0.00976562Z" fill="#111111"/>
<path d="M815.984 162.47C779.774 162.47 750.424 135.47 750.424 102.23C750.424 68.9897 779.774 41.9998 815.984 41.9998C852.194 41.9998 881.544 68.9997 881.544 102.24C881.544 135.48 852.194 162.48 815.984 162.48M815.984 0.00976562C744.794 0.00976562 700.984 46.5998 700.984 104.01C700.984 161.42 744.804 208.07 815.984 208.07C887.164 208.07 930.984 161.48 930.984 104.01C930.984 46.5398 887.164 0.00976562 815.984 0.00976562Z" fill="#111111"/>
<path d="M1038.71 160.639H1004.03V47.4595H1038.71C1078.03 47.4595 1106.25 65.7194 1106.25 104.049C1106.25 142.379 1078.03 160.639 1038.71 160.639ZM1156.45 106.789C1156.45 51.7894 1113.56 3.68945 1040.54 3.68945H949.258V204.459H1040.54C1117.21 204.459 1156.45 161.799 1156.45 106.829" fill="#111111"/>
<path d="M1196.53 206.909C1201.06 206.909 1205.48 205.567 1209.25 203.053C1213.01 200.538 1215.94 196.965 1217.68 192.783C1219.41 188.602 1219.86 184 1218.98 179.561C1218.1 175.121 1215.92 171.042 1212.72 167.84C1209.52 164.638 1205.45 162.457 1201.01 161.571C1196.57 160.686 1191.97 161.136 1187.78 162.866C1183.6 164.595 1180.03 167.526 1177.51 171.287C1174.99 175.049 1173.64 179.473 1173.64 183.999C1173.64 190.07 1176.05 195.892 1180.34 200.185C1184.64 204.477 1190.46 206.889 1196.53 206.889" fill="#111111"/>
</g>
</g>
<defs>
<clipPath id="clip0_16711_13275">
<rect width="1219.43" height="208.11" fill="white"/>
</clipPath>
</defs>
</svg>
