<svg width="34" height="34" viewBox="0 0 34 34" fill="none" xmlns="http://www.w3.org/2000/svg">
<path d="M29.7859 15.6542V26.9167C29.7859 27.6958 29.5085 28.3628 28.9536 28.9177C28.3987 29.4726 27.7317 29.75 26.9526 29.75H7.11923C6.34006 29.75 5.67305 29.4726 5.11819 28.9177C4.56333 28.3628 4.2859 27.6958 4.2859 26.9167V15.6542C3.74284 15.1583 3.32374 14.5208 3.02861 13.7417C2.73347 12.9625 2.72756 12.1125 3.0109 11.1917L4.4984 6.375C4.68729 5.76111 5.02374 5.25347 5.50777 4.85208C5.9918 4.45069 6.55256 4.25 7.19006 4.25H26.8817C27.5192 4.25 28.0741 4.44479 28.5463 4.83438C29.0185 5.22396 29.3609 5.7375 29.5734 6.375L31.0609 11.1917C31.3442 12.1125 31.3383 12.9507 31.0432 13.7063C30.7481 14.4618 30.329 15.1111 29.7859 15.6542ZM20.1526 14.1667C20.7901 14.1667 21.2741 13.9483 21.6046 13.5115C21.9352 13.0747 22.0651 12.5847 21.9942 12.0417L21.2151 7.08333H18.4526V12.325C18.4526 12.8208 18.6178 13.2517 18.9484 13.6177C19.279 13.9837 19.6803 14.1667 20.1526 14.1667ZM13.7776 14.1667C14.3206 14.1667 14.7633 13.9837 15.1057 13.6177C15.4481 13.2517 15.6192 12.8208 15.6192 12.325V7.08333H12.8567L12.0776 12.0417C11.9831 12.6083 12.1071 13.1042 12.4494 13.5292C12.7918 13.9542 13.2345 14.1667 13.7776 14.1667ZM7.4734 14.1667C7.8984 14.1667 8.27027 14.0132 8.58902 13.7063C8.90777 13.3993 9.10256 13.0097 9.1734 12.5375L9.95256 7.08333H7.19006L5.7734 11.8292C5.63173 12.3014 5.70847 12.809 6.00361 13.3521C6.29874 13.8951 6.78868 14.1667 7.4734 14.1667ZM26.5984 14.1667C27.2831 14.1667 27.779 13.8951 28.0859 13.3521C28.3928 12.809 28.4637 12.3014 28.2984 11.8292L26.8109 7.08333H24.1192L24.8984 12.5375C24.9692 13.0097 25.164 13.3993 25.4828 13.7063C25.8015 14.0132 26.1734 14.1667 26.5984 14.1667ZM7.11923 26.9167H26.9526V16.9292C26.8345 16.9764 26.7578 17 26.7224 17H26.5984C25.9609 17 25.4001 16.8938 24.9161 16.6812C24.4321 16.4688 23.954 16.1264 23.4817 15.6542C23.0567 16.0792 22.5727 16.4097 22.0296 16.6458C21.4866 16.8819 20.9081 17 20.2942 17C19.6567 17 19.0606 16.8819 18.5057 16.6458C17.9508 16.4097 17.4609 16.0792 17.0359 15.6542C16.6345 16.0792 16.1682 16.4097 15.6369 16.6458C15.1057 16.8819 14.5331 17 13.9192 17C13.2345 17 12.6147 16.8819 12.0599 16.6458C11.505 16.4097 11.0151 16.0792 10.5901 15.6542C10.0942 16.15 9.6043 16.4983 9.12027 16.699C8.63624 16.8997 8.08729 17 7.4734 17H7.31402C7.25499 17 7.19006 16.9764 7.11923 16.9292V26.9167Z" fill="#808080"/>
</svg>
