<svg width="22" height="21" viewBox="0 0 22 21" fill="none" xmlns="http://www.w3.org/2000/svg">
<g clip-path="url(#clip0_177_171)">
<path d="M21.8253 0.302734H0.000976562V4.66759H21.8253V0.302734Z" fill="white"/>
<path d="M13.8238 1.39453H8.36719V20.3092H13.8238V1.39453Z" fill="white"/>
<mask id="mask0_177_171" style="mask-type:luminance" maskUnits="userSpaceOnUse" x="-115" y="-78" width="252" height="178">
<path d="M136.232 -77.6133H-114.228V99.1219H136.232V-77.6133Z" fill="white"/>
</mask>
<g mask="url(#mask0_177_171)">
<path d="M19.7208 20.6956C20.1721 20.6956 20.6132 20.5618 20.9883 20.3111C21.3635 20.0604 21.6559 19.7041 21.8286 19.2873C22.0013 18.8704 22.0464 18.4117 21.9584 17.9691C21.8704 17.5266 21.6531 17.1201 21.3341 16.801C21.015 16.482 20.6085 16.2647 20.1659 16.1767C19.7234 16.0886 19.2647 16.1338 18.8478 16.3065C18.4309 16.4791 18.0746 16.7716 17.8239 17.1467C17.5733 17.5219 17.4395 17.963 17.4395 18.4142C17.4393 18.7138 17.4982 19.0106 17.6128 19.2874C17.7275 19.5643 17.8955 19.8158 18.1074 20.0277C18.3192 20.2396 18.5708 20.4076 18.8476 20.5222C19.1245 20.6368 19.4212 20.6957 19.7208 20.6956Z" fill="white"/>
</g>
</g>
<defs>
<clipPath id="clip0_177_171">
<rect width="22" height="20.3932" fill="white" transform="translate(0 0.302734)"/>
</clipPath>
</defs>
</svg>
