<svg width="20" height="20" viewBox="0 0 20 20" fill="none" xmlns="http://www.w3.org/2000/svg">
<path d="M0.25 8.91667V0.25H8.91667V8.91667H0.25ZM2.41667 6.75H6.75V2.41667H2.41667V6.75ZM0.25 19.75V11.0833H8.91667V19.75H0.25ZM2.41667 17.5833H6.75V13.25H2.41667V17.5833ZM11.0833 8.91667V0.25H19.75V8.91667H11.0833ZM13.25 6.75H17.5833V2.41667H13.25V6.75ZM17.5833 19.75V17.5833H19.75V19.75H17.5833ZM11.0833 13.25V11.0833H13.25V13.25H11.0833ZM13.25 15.4167V13.25H15.4167V15.4167H13.25ZM11.0833 17.5833V15.4167H13.25V17.5833H11.0833ZM13.25 19.75V17.5833H15.4167V19.75H13.25ZM15.4167 17.5833V15.4167H17.5833V17.5833H15.4167ZM15.4167 13.25V11.0833H17.5833V13.25H15.4167ZM17.5833 15.4167V13.25H19.75V15.4167H17.5833Z" fill="currentColor"/>
</svg>
