<svg width="82" height="82" viewBox="0 0 82 82" fill="none" xmlns="http://www.w3.org/2000/svg">
<rect width="82" height="82" fill="#3888E7"/>
<g clip-path="url(#clip0_34_755)">
<path d="M67.65 15H12.001V26.1298H67.65V15Z" fill="white"/>
<path d="M47.2465 17.7832H33.333V66.0132H47.2465V17.7832Z" fill="white"/>
<mask id="mask0_34_755" style="mask-type:luminance" maskUnits="userSpaceOnUse" x="-280" y="-184" width="640" height="451">
<path d="M359.369 -183.668H-279.269V266.983H359.369V-183.668Z" fill="white"/>
</mask>
<g mask="url(#mask0_34_755)">
<path d="M62.2841 67.0037C63.4346 67.0037 64.5593 66.6625 65.516 66.0233C66.4726 65.3841 67.2182 64.4755 67.6585 63.4126C68.0988 62.3496 68.214 61.18 67.9896 60.0515C67.7651 58.9231 67.2111 57.8865 66.3975 57.073C65.5839 56.2594 64.5474 55.7054 63.4189 55.4809C62.2905 55.2565 61.1209 55.3717 60.0579 55.8119C58.9949 56.2522 58.0864 56.9979 57.4472 57.9545C56.808 58.9112 56.4668 60.0359 56.4668 61.1864C56.4665 61.9504 56.6167 62.707 56.9089 63.413C57.2012 64.1189 57.6296 64.7603 58.1699 65.3006C58.7101 65.8408 59.3515 66.2693 60.0575 66.5615C60.7634 66.8538 61.52 67.004 62.2841 67.0037Z" fill="white"/>
</g>
</g>
<defs>
<clipPath id="clip0_34_755">
<rect width="56.0971" height="52" fill="white" transform="translate(12 15)"/>
</clipPath>
</defs>
</svg>
